<svg aria-hidden="true" style="position: absolute; width: 0; height: 0; overflow: hidden;" version="1.1" xmlns="http://www.w3.org/2000/svg" xmlns:xlink="http://www.w3.org/1999/xlink">
<defs>
<symbol id="icon-check" viewBox="0 0 20 20">
<path d="M8.294 16.998c-0.435 0-0.847-0.203-1.111-0.553l-3.573-4.721c-0.465-0.613-0.344-1.486 0.27-1.951 0.615-0.467 1.488-0.344 1.953 0.27l2.351 3.104 5.911-9.492c0.407-0.652 1.267-0.852 1.921-0.445s0.854 1.266 0.446 1.92l-6.984 11.21c-0.242 0.391-0.661 0.635-1.12 0.656-0.022 0.002-0.042 0.002-0.064 0.002z"></path>
</symbol>
<symbol id="icon-stopwatch" viewBox="0 0 20 20">
<path d="M7.376 6.745c-0.447 0.275 1.197 4.242 1.598 4.888 0.35 0.569 1.093 0.742 1.658 0.394 0.568-0.352 0.745-1.094 0.395-1.66-0.397-0.648-3.205-3.898-3.651-3.622zM7.041 2.402c0.928-0.323 1.922-0.502 2.959-0.502s2.031 0.179 2.959 0.502c0.329 0.114 0.765-0.115 0.572-0.611-0.141-0.36-0.277-0.712-0.332-0.855-0.131-0.339-0.6-0.619-0.804-0.665-0.772-0.174-1.572-0.271-2.395-0.271s-1.623 0.097-2.396 0.271c-0.204 0.046-0.672 0.326-0.803 0.665-0.055 0.143-0.192 0.495-0.332 0.855-0.193 0.496 0.243 0.726 0.572 0.611zM19.098 3.186c-0.192-0.23-0.396-0.455-0.613-0.672-0.216-0.217-0.441-0.42-0.67-0.613-0.153-0.129-0.603-0.234-0.888 0.051s-1.648 1.647-1.648 1.647c0.402 0.288 0.793 0.605 1.155 0.966s0.677 0.752 0.966 1.155c0 0 1.363-1.362 1.647-1.647 0.286-0.286 0.181-0.735 0.051-0.887zM10 2.9c-4.475 0-8.101 3.626-8.101 8.1s3.626 8.101 8.101 8.101c4.473 0 8.1-3.626 8.1-8.101 0-4.473-3.627-8.1-8.1-8.1zM10 17.101c-3.368 0-6.1-2.731-6.1-6.1s2.731-6.1 6.1-6.1c3.369 0 6.101 2.731 6.101 6.1s-2.732 6.1-6.101 6.1z"></path>
</symbol>
</defs>
</svg>
